<svg width="94" height="20" viewBox="0 0 94 20" fill="none" xmlns="http://www.w3.org/2000/svg">
<path d="M19.3316 12.4191C18.0209 17.7763 12.696 21.0365 7.438 19.7006C2.18216 18.365 -1.01742 12.9388 0.293938 7.58198C1.60407 2.22422 6.92892 -1.03637 12.1854 0.299246C17.4431 1.63486 20.6423 7.06168 19.3316 12.4191Z" fill="#FCA014"/>
<path d="M14.1395 8.57429C14.3348 7.24368 13.3406 6.52837 11.9811 6.05119L12.4221 4.2487L11.3454 3.97527L10.916 5.73025C10.6329 5.65838 10.3422 5.59057 10.0533 5.52338L10.4857 3.75683L9.4096 3.4834L8.96829 5.28525C8.73399 5.23088 8.50398 5.17714 8.28072 5.12057L8.28194 5.11495L6.79702 4.73713L6.51058 5.909C6.51058 5.909 7.30947 6.09556 7.29261 6.10712C7.7287 6.21806 7.80751 6.51211 7.79433 6.74524L7.29199 8.79866C7.32204 8.80647 7.361 8.81772 7.40393 8.83522C7.36805 8.82616 7.32972 8.81616 7.29015 8.80647L6.58601 11.683C6.53265 11.818 6.39741 12.0205 6.09258 11.9436C6.10331 11.9596 5.30993 11.7446 5.30993 11.7446L4.77539 13.0005L6.1766 13.3564C6.43728 13.423 6.69274 13.4927 6.94421 13.5583L6.49862 15.3814L7.57414 15.6548L8.01544 13.8511C8.30924 13.9324 8.59445 14.0074 8.87353 14.078L8.43376 15.8733L9.5105 16.1467L9.9561 14.327C11.7922 14.6811 13.1728 14.5383 13.754 12.8461C14.2223 11.4836 13.7307 10.6977 12.7647 10.1852C13.4682 10.0199 13.9981 9.54834 14.1395 8.57429ZM11.6793 12.0896C11.3466 13.4521 9.09525 12.7155 8.36536 12.5308L8.95664 10.1155C9.68653 10.3011 12.0271 10.6686 11.6793 12.0896ZM12.0124 8.5546C11.7088 9.79396 9.83496 9.16428 9.22713 9.0099L9.7632 6.81931C10.371 6.97368 12.3286 7.2618 12.0124 8.5546Z" fill="white"/>
<g opacity="0.5">
<path d="M28.759 6.04939C29.5549 6.04939 30.2424 6.1947 30.8202 6.48001C31.4008 6.76813 31.8798 7.15626 32.2641 7.64438C32.6431 8.135 32.9253 8.70843 33.1074 9.36561C33.2884 10.0247 33.3791 10.7331 33.3791 11.4915C33.3791 12.6565 33.1697 13.7571 32.7468 14.7946C32.3239 15.8337 31.7501 16.7349 31.0202 17.5036C30.2909 18.2715 29.4297 18.8768 28.4367 19.3239C27.4452 19.7714 26.3673 19.9952 25.2099 19.9952C25.0602 19.9952 24.7971 19.9908 24.4254 19.983C24.0537 19.9752 23.6265 19.9361 23.1481 19.8702C22.6666 19.8018 22.1575 19.7005 21.6199 19.5649C21.0826 19.4318 20.5723 19.2452 20.0917 19.0083L24.3889 0.609762L28.2377 0.00195312L26.6991 6.53095C27.0284 6.3797 27.3603 6.26251 27.6915 6.1772C28.023 6.09314 28.3788 6.04939 28.759 6.04939ZM25.5306 16.884C26.1103 16.884 26.6564 16.7387 27.1695 16.4533C27.6841 16.1677 28.1282 15.7821 28.5002 15.3018C28.8722 14.8193 29.1666 14.2759 29.3813 13.6687C29.596 13.0615 29.7045 12.4281 29.7045 11.769C29.7045 10.9593 29.5717 10.3278 29.3071 9.87123C29.0424 9.41655 28.5526 9.1878 27.8415 9.1878C27.6084 9.1878 27.3081 9.23311 26.9358 9.31404C26.5623 9.39998 26.228 9.57842 25.9284 9.84686L24.2901 16.7805C24.3889 16.7983 24.4763 16.8152 24.5508 16.8312C24.6238 16.8484 24.7044 16.8605 24.7848 16.869C24.8697 16.8787 24.967 16.8837 25.0844 16.8837C25.2019 16.8837 25.3488 16.884 25.5306 16.884Z" fill="#1A202C"/>
<path d="M37.3704 19.6432H33.6942L36.7987 6.33178H40.5L37.3704 19.6432ZM39.1592 4.70992C38.6462 4.70992 38.1809 4.55429 37.7682 4.24242C37.352 3.93242 37.1459 3.45524 37.1459 2.81212C37.1459 2.45838 37.2164 2.1265 37.3563 1.81338C37.4983 1.50088 37.6838 1.23183 37.9163 1.00308C38.1484 0.776206 38.4174 0.594954 38.7228 0.458393C39.0301 0.324019 39.3571 0.256836 39.7054 0.256836C40.2182 0.256836 40.681 0.41246 41.0953 0.724332C41.5081 1.03777 41.7157 1.51495 41.7157 2.15463C41.7157 2.50963 41.6455 2.84275 41.5044 3.15524C41.3643 3.46774 41.1787 3.7368 40.9463 3.96554C40.7159 4.19273 40.4445 4.37335 40.1397 4.50866C39.8321 4.64523 39.5064 4.70992 39.1592 4.70992Z" fill="#1A202C"/>
<path d="M43.7212 3.01504L47.5715 2.40723L46.626 6.33094H50.7496L50.005 9.41778H45.9063L44.8145 14.074C44.7139 14.4621 44.6569 14.8246 44.6409 15.1615C44.6228 15.4999 44.6648 15.7905 44.7642 16.0352C44.863 16.2805 45.0405 16.4696 45.2981 16.6033C45.5545 16.7393 45.9216 16.8077 46.4031 16.8077C46.7996 16.8077 47.186 16.7693 47.5596 16.693C47.931 16.618 48.3073 16.5137 48.6882 16.3771L48.9623 19.2633C48.4655 19.4489 47.9276 19.6086 47.348 19.743C46.7674 19.8792 46.0802 19.9449 45.2859 19.9449C44.1438 19.9449 43.2584 19.7721 42.6276 19.428C41.9977 19.0814 41.5524 18.608 41.2859 18.0086C41.023 17.4115 40.9056 16.723 40.9384 15.9474C40.9724 15.1699 41.0874 14.3527 41.2859 13.4921L43.7212 3.01504Z" fill="#1A202C"/>
</g>
<path d="M50.5889 14.328C50.5889 13.1814 50.771 12.1002 51.1351 11.088C51.4985 10.0749 52.022 9.18895 52.7013 8.42865C53.3781 7.67209 54.2028 7.07272 55.1734 6.63272C56.1394 6.19523 57.2211 5.97461 58.4131 5.97461C59.1593 5.97461 59.8257 6.04649 60.4121 6.19055C61.0009 6.33586 61.5336 6.52367 62.0154 6.75929L60.7476 9.69676C60.4164 9.55989 60.0726 9.43926 59.7171 9.32989C59.3614 9.21833 58.9271 9.16458 58.4134 9.16458C57.1864 9.16458 56.2164 9.59551 55.4945 10.4546C54.7753 11.3142 54.4131 12.4714 54.4131 13.923C54.4131 14.7833 54.5953 15.4789 54.9609 16.0111C55.3246 16.5433 55.9965 16.8079 56.9721 16.8079C57.4535 16.8079 57.9182 16.7567 58.3631 16.6567C58.8115 16.5554 59.2074 16.4279 59.5561 16.2773L59.8306 19.2885C59.3657 19.4723 58.8529 19.6382 58.2905 19.7835C57.7268 19.9238 57.0558 19.9967 56.2777 19.9967C55.2507 19.9967 54.3812 19.8435 53.6701 19.542C52.9586 19.2357 52.3707 18.8292 51.9076 18.3142C51.442 17.7979 51.1078 17.1951 50.9011 16.5033C50.6944 15.812 50.5889 15.0858 50.5889 14.328Z" fill="#1A202C"/>
<path d="M66.9185 19.9967C66.0411 19.9967 65.279 19.8604 64.6326 19.5907C63.9879 19.321 63.454 18.9426 63.0317 18.452C62.6088 17.9639 62.2923 17.3854 62.0755 16.7189C61.8587 16.0526 61.7544 15.3148 61.7544 14.5064C61.7544 13.4923 61.9142 12.4786 62.2371 11.4677C62.5585 10.4546 63.0354 9.54427 63.6665 8.73521C64.2928 7.92491 65.0653 7.2624 65.9749 6.74585C66.8836 6.23273 67.9287 5.97461 69.1027 5.97461C69.9642 5.97461 70.7223 6.11117 71.3776 6.38085C72.0299 6.64991 72.5672 7.03147 72.992 7.51959C73.4121 8.01021 73.7314 8.58615 73.9461 9.25364C74.1623 9.91864 74.269 10.6583 74.269 11.4674C74.269 12.4783 74.1114 13.492 73.7986 14.5061C73.4854 15.5151 73.0208 16.4276 72.4075 17.2386C71.7953 18.0476 71.0299 18.7098 70.1104 19.2242C69.1923 19.7385 68.1275 19.9967 66.9185 19.9967ZM68.7559 9.16489C68.2109 9.16489 67.7291 9.32613 67.3166 9.64457C66.9026 9.96675 66.5548 10.3718 66.2745 10.8602C65.9911 11.3508 65.7811 11.8858 65.6391 12.4674C65.4983 13.0502 65.4293 13.6011 65.4293 14.1245C65.4293 14.9692 65.563 15.627 65.8259 16.1005C66.0924 16.5714 66.5711 16.8083 67.2669 16.8083C67.8137 16.8083 68.2931 16.6483 68.708 16.3264C69.1196 16.0067 69.4677 15.6014 69.7501 15.112C70.0316 14.6239 70.2435 14.0873 70.3855 13.5049C70.5245 12.9239 70.5953 12.3699 70.5953 11.8474C70.5953 11.0049 70.4622 10.3455 70.1969 9.87269C69.932 9.40176 69.4511 9.16489 68.7559 9.16489Z" fill="#1A202C"/>
<path d="M78.2759 19.6432H74.5967L77.7012 6.33178H81.4043L78.2759 19.6432ZM80.062 4.70992C79.5492 4.70992 79.0843 4.55429 78.6721 4.24242C78.2581 3.93242 78.0502 3.45524 78.0502 2.81212C78.0502 2.45838 78.1216 2.1265 78.2618 1.81338C78.4019 1.50088 78.5887 1.23183 78.8212 1.00308C79.0521 0.776206 79.3235 0.594954 79.6283 0.458393C79.9338 0.324019 80.2607 0.256836 80.6079 0.256836C81.1219 0.256836 81.5862 0.41246 81.9996 0.724332C82.4133 1.03777 82.6221 1.51495 82.6221 2.15463C82.6221 2.50963 82.5479 2.84275 82.409 3.15524C82.2701 3.46774 82.0833 3.7368 81.8518 3.96554C81.6187 4.19273 81.3506 4.37335 81.0452 4.50866C80.7373 4.64523 80.411 4.70992 80.062 4.70992Z" fill="#1A202C"/>
<path d="M84.0543 6.93757C84.3334 6.85445 84.645 6.75445 84.9839 6.6457C85.324 6.53695 85.704 6.43571 86.1284 6.34446C86.5482 6.2504 87.0221 6.17414 87.5431 6.11508C88.0642 6.05477 88.6579 6.02539 89.3175 6.02539C91.2564 6.02539 92.5929 6.6007 93.3307 7.74788C94.068 8.89506 94.1956 10.465 93.7171 12.455L92.0261 19.6424H88.3257L89.9646 12.6063C90.0646 12.1669 90.1431 11.7422 90.2011 11.3272C90.2597 10.916 90.2563 10.5535 90.1879 10.2397C90.1226 9.92973 89.9686 9.67598 89.7297 9.47942C89.4871 9.28599 89.1207 9.1888 88.6235 9.1888C88.1442 9.1888 87.6566 9.2413 87.1588 9.34255L84.7493 19.6421H81.0474L84.0543 6.93757Z" fill="#1A202C"/>
</svg>
