<svg width="92" height="20" viewBox="0 0 92 20" fill="none" xmlns="http://www.w3.org/2000/svg">
<g clip-path="url(#clip0_35_8397)">
<g clip-path="url(#clip1_35_8397)">
<path d="M20.7995 17.7687H16.9112L19.3432 2.28027H23.2313L20.7995 17.7687Z" fill="#00579F"/>
<path d="M34.8951 2.6594C34.1282 2.34602 32.9117 2 31.4076 2C27.5678 2 24.8638 4.10895 24.8472 7.12412C24.8153 9.3487 26.7832 10.5843 28.255 11.326C29.7593 12.084 30.2707 12.5787 30.2707 13.2543C30.2554 14.2919 29.0551 14.7702 27.9356 14.7702C26.3832 14.7702 25.5514 14.5236 24.2873 13.9464L23.7753 13.6989L23.2312 17.1757C24.1432 17.6036 25.8234 17.9834 27.5678 18C31.6477 18 34.3038 15.9237 34.3353 12.7105C34.3508 10.9474 33.3117 9.59639 31.0714 8.49242C29.7115 7.78374 28.8786 7.30589 28.8786 6.58079C28.8946 5.9216 29.583 5.24643 31.1182 5.24643C32.3823 5.21336 33.3111 5.52631 34.0146 5.83948L34.3663 6.00394L34.8951 2.6594Z" fill="#00579F"/>
<path d="M40.0638 12.2817C40.3841 11.3919 41.6162 7.94816 41.6162 7.94816C41.6001 7.98123 41.9358 7.04195 42.1278 6.46533L42.3996 7.7999C42.3996 7.7999 43.1359 11.5073 43.2958 12.2817C42.6881 12.2817 40.8318 12.2817 40.0638 12.2817ZM44.8635 2.28027H41.8559C40.9284 2.28027 40.2237 2.56015 39.8236 3.56535L34.0479 17.7685H38.1279C38.1279 17.7685 38.7995 15.8568 38.9439 15.4451C39.3915 15.4451 43.3604 15.4451 43.9362 15.4451C44.0478 15.9889 44.4002 17.7685 44.4002 17.7685H48.0004L44.8635 2.28027Z" fill="#00579F"/>
<path d="M13.6635 2.28027L9.85551 12.8419L9.43939 10.6999C8.73538 8.22826 6.52745 5.54291 4.06351 4.20768L7.55146 17.7523H11.6633L17.7751 2.28027H13.6635Z" fill="#00579F"/>
<path d="M6.31995 2.28027H0.0640009L0 2.59322C4.88003 3.87852 8.11199 6.97669 9.43985 10.7005L8.07988 3.58222C7.85598 2.593 7.16792 2.3129 6.31995 2.28027Z" fill="#F4A622"/>
</g>
<path d="M80.3255 2.13867H71.6733V17.8609H80.3255V2.13867Z" fill="#FF5F00"/>
<path d="M72.2229 10C72.2229 6.80556 73.7062 3.97222 75.9859 2.13889C74.3104 0.805556 72.1955 0 69.8882 0C64.4222 0 60 4.47222 60 10C60 15.5278 64.4222 20 69.8882 20C72.1955 20 74.3104 19.1944 75.9859 17.8611C73.7062 16.0556 72.2229 13.1944 72.2229 10Z" fill="#EB001B"/>
<path d="M92.0001 10C92.0001 15.5278 87.5779 20 82.1119 20C79.8047 20 77.6897 19.1944 76.0142 17.8611C78.3214 16.0278 79.7772 13.1944 79.7772 10C79.7772 6.80556 78.294 3.97222 76.0142 2.13889C77.6897 0.805556 79.8047 0 82.1119 0C87.5779 0 92.0001 4.5 92.0001 10Z" fill="#F79E1B"/>
</g>
<defs>
<clipPath id="clip0_35_8397">
<rect width="92" height="20" fill="white"/>
</clipPath>
<clipPath id="clip1_35_8397">
<rect width="48" height="16" fill="white" transform="translate(0 2)"/>
</clipPath>
</defs>
</svg>
